# xmcd CD database file
#
# Track frame offsets:
#	150
#	7265
#	22576
#	40506
#	51234
#	62039
#	73968
#	85186
#	101738
#	114245
#	125510
#	137752
#
# Disc length: 2055 seconds
#
# Revision: 0
# Processed by: cddbd v1.5.1PL2 Copyright (c) Steve Scherf et al.
# Submitted via: CDex 1.51
#
DISCID=9e08050c
DTITLE=Bob Lucier - Nerves Of Steel
DYEAR=1976
DGENRE=Country
TTITLE0=Hey Good Lookin
TTITLE1=You And Me
TTITLE2=City Of New Orleans
TTITLE3=C'Mon Son
TTITLE4=The Homecoming
TTITLE5=Flowers On The Wall
TTITLE6=Happy World
TTITLE7=The Way We Were
TTITLE8=Jamacian Steel
TTITLE9=My Pleasure
TTITLE10=I Can't Help It
TTITLE11=Too High
EXTD=YEAR: 1976
EXTT0=
EXTT1=
EXTT2=
EXTT3=
EXTT4=
EXTT5=
EXTT6=
EXTT7=
EXTT8=
EXTT9=
EXTT10=
EXTT11=
PLAYORDER=
